PathFileType	4	(X/Y/Z)	test111.trc
DataRate	CameraRate	NumFrames	NumMarkers	Units	OrigDataRate	OrigDataStartFrame	OrigNumFrames
120	120	8	27	m	120	758	1010
Frame#	Time	RHip			RKnee			RAnkle			RBigToe			RSmallToe			RHeel			LHip			LKnee			LAnkle			LBigToe			LSmallToe			LHeel			Nose			REye			LEye			RShoulder			RElbow			RWrist			RThumb			RIndex			RPinky			LShoulder			LElbow			LWrist			LThumb			LIndex			LPinky		
		X	Y	Z	X	Y	Z	X	Y	Z	X	Y	Z	X	Y	Z	X	Y	Z	X	Y	Z	X	Y	Z	X	Y	Z	X	Y	Z	X	Y	Z	X	Y	Z	X	Y	Z	X	Y	Z	X	Y	Z	X	Y	Z	X	Y	Z	X	Y	Z	X	Y	Z	X	Y	Z	X	Y	Z	X	Y	Z	X	Y	Z	X	Y	Z	X	Y	Z	X	Y	Z	X	Y	Z
758	6.316666666666666	0.236	0.995	0.861	0.136	0.962	0.448	0.211	1.094	0.082	0.105	0.964	0.012	0.094	1.021	0.023	0.247	1.12	0.033	0.439	0.935	0.851	0.392	0.911	0.417	0.57	1.163	0.157	0.501	1.1	0.009	0.553	1.1	0.021	0.596	1.216	0.138	0.235	0.654	1.413	0.205	0.668	1.444	0.25	0.633	1.445	0.161	0.965	1.314	0.094	1.066	1.052	-0.007	1.009	0.84	-0.019	0.955	0.781	-0.049	0.963	0.756	-0.028	1.019	0.745	0.487	0.759	1.317	0.594	0.727	1.047	0.616	0.556	0.867	0.576	0.494	0.829	0.597	0.466	0.811	0.631	0.512	0.785
759	6.325	0.234	0.991	0.86	0.133	0.959	0.446	0.211	1.094	0.081	0.105	0.965	0.011	0.093	1.023	0.023	0.247	1.119	0.033	0.436	0.929	0.85	0.381	0.896	0.415	0.564	1.152	0.164	0.499	1.098	0.01	0.549	1.096	0.023	0.591	1.205	0.148	0.231	0.648	1.412	0.201	0.662	1.442	0.246	0.627	1.443	0.157	0.958	1.312	0.087	1.057	1.05	-0.014	0.996	0.839	-0.026	0.942	0.781	-0.056	0.95	0.756	-0.035	1.006	0.745	0.483	0.754	1.315	0.592	0.722	1.047	0.621	0.554	0.867	0.581	0.491	0.828	0.603	0.465	0.81	0.638	0.512	0.785
760	6.333333333333333	0.231	0.986	0.859	0.13	0.957	0.444	0.211	1.094	0.081	0.104	0.966	0.011	0.093	1.024	0.022	0.248	1.118	0.032	0.432	0.922	0.848	0.371	0.88	0.413	0.557	1.141	0.171	0.495	1.095	0.011	0.545	1.091	0.025	0.585	1.195	0.157	0.228	0.642	1.41	0.197	0.655	1.44	0.242	0.621	1.441	0.153	0.951	1.311	0.079	1.048	1.048	-0.02	0.983	0.838	-0.034	0.93	0.781	-0.063	0.937	0.756	-0.042	0.992	0.745	0.48	0.749	1.314	0.591	0.718	1.047	0.625	0.552	0.867	0.586	0.488	0.828	0.61	0.463	0.81	0.646	0.511	0.785
761	6.341666666666667	0.229	0.981	0.858	0.128	0.954	0.443	0.211	1.094	0.081	0.104	0.967	0.011	0.092	1.025	0.022	0.248	1.118	0.032	0.428	0.915	0.846	0.36	0.865	0.412	0.55	1.129	0.178	0.491	1.089	0.013	0.539	1.084	0.028	0.578	1.183	0.166	0.224	0.635	1.408	0.194	0.648	1.438	0.239	0.615	1.439	0.148	0.944	1.309	0.072	1.038	1.047	-0.027	0.97	0.838	-0.041	0.916	0.782	-0.07	0.923	0.757	-0.049	0.978	0.745	0.476	0.744	1.312	0.59	0.714	1.047	0.63	0.55	0.867	0.591	0.486	0.827	0.616	0.461	0.81	0.653	0.51	0.786
762	6.35	0.227	0.977	0.857	0.125	0.952	0.442	0.211	1.094	0.08	0.103	0.967	0.01	0.092	1.026	0.021	0.248	1.117	0.032	0.424	0.908	0.845	0.35	0.849	0.412	0.542	1.116	0.184	0.485	1.082	0.015	0.533	1.075	0.031	0.57	1.17	0.174	0.221	0.628	1.406	0.191	0.64	1.436	0.236	0.609	1.437	0.144	0.936	1.308	0.064	1.028	1.046	-0.034	0.956	0.837	-0.048	0.902	0.782	-0.077	0.908	0.758	-0.056	0.963	0.745	0.473	0.739	1.311	0.589	0.71	1.048	0.635	0.547	0.868	0.597	0.483	0.827	0.623	0.459	0.809	0.661	0.509	0.787
763	6.358333333333333	0.224	0.972	0.856	0.123	0.95	0.44	0.211	1.093	0.08	0.103	0.968	0.01	0.092	1.026	0.021	0.248	1.117	0.032	0.42	0.9	0.843	0.34	0.833	0.412	0.533	1.102	0.189	0.478	1.072	0.017	0.525	1.065	0.034	0.562	1.157	0.18	0.218	0.621	1.404	0.188	0.632	1.434	0.233	0.602	1.435	0.141	0.928	1.307	0.057	1.018	1.045	-0.041	0.941	0.837	-0.056	0.887	0.784	-0.084	0.893	0.759	-0.064	0.947	0.746	0.469	0.734	1.31	0.589	0.705	1.049	0.64	0.545	0.869	0.603	0.481	0.828	0.63	0.457	0.81	0.669	0.508	0.788
764	6.366666666666666	0.222	0.967	0.855	0.122	0.948	0.44	0.211	1.093	0.08	0.102	0.968	0.01	0.092	1.026	0.02	0.248	1.117	0.031	0.416	0.892	0.842	0.33	0.817	0.412	0.524	1.088	0.194	0.469	1.061	0.019	0.516	1.052	0.037	0.553	1.144	0.186	0.215	0.614	1.403	0.186	0.624	1.433	0.23	0.595	1.434	0.137	0.92	1.306	0.049	1.007	1.045	-0.048	0.926	0.838	-0.063	0.872	0.785	-0.091	0.877	0.762	-0.072	0.932	0.748	0.466	0.729	1.31	0.589	0.701	1.05	0.646	0.542	0.87	0.609	0.478	0.828	0.637	0.454	0.81	0.676	0.506	0.789
765	6.375	0.219	0.961	0.854	0.122	0.947	0.439	0.211	1.093	0.079	0.102	0.967	0.01	0.092	1.025	0.02	0.248	1.116	0.031	0.411	0.884	0.841	0.321	0.801	0.412	0.514	1.073	0.197	0.46	1.047	0.021	0.505	1.037	0.04	0.543	1.129	0.19	0.213	0.606	1.402	0.184	0.616	1.432	0.228	0.587	1.433	0.133	0.912	1.305	0.042	0.996	1.045	-0.055	0.911	0.839	-0.07	0.856	0.787	-0.098	0.86	0.764	-0.08	0.916	0.75	0.464	0.723	1.31	0.589	0.696	1.051	0.651	0.539	0.871	0.616	0.475	0.829	0.644	0.451	0.811	0.684	0.504	0.79
